<?xml version="1.0" standalone="no"?>
<!DOCTYPE svg PUBLIC "-//W3C//DTD SVG 20010904//EN"
 "http://www.w3.org/TR/2001/REC-SVG-20010904/DTD/svg10.dtd">
<svg version="1.0" xmlns="http://www.w3.org/2000/svg"
 width="1200.000000pt" height="1208.000000pt" viewBox="0 0 1200.000000 1208.000000"
 preserveAspectRatio="xMidYMid meet">

<g transform="translate(0.000000,1208.000000) scale(0.100000,-0.100000)"
fill="#000000" stroke="none">
<path d="M6835 10216 c-70 -34 -1710 -1534 -1739 -1591 -13 -26 -22 -65 -24
-110 -5 -88 20 -147 85 -205 58 -51 99 -64 189 -58 l74 5 0 -154 0 -153 -515
0 -515 0 0 280 0 280 59 0 c92 0 91 -3 91 285 0 202 -3 244 -16 263 l-15 22
-748 0 c-568 0 -750 -3 -759 -12 -17 -17 -17 -529 0 -546 7 -7 38 -12 70 -12
l58 0 0 -127 c1 -71 1 -180 2 -243 0 -63 0 -132 -1 -152 l-1 -38 -220 0 c-239
0 -274 -6 -304 -53 -15 -22 -516 -2247 -516 -2290 0 -34 31 -79 65 -93 27 -11
90 -14 280 -14 l245 0 0 -1503 c0 -1444 1 -1505 18 -1520 17 -16 142 -17 1591
-17 l1572 0 80 -82 c52 -54 83 -78 89 -72 7 7 0 20 -20 39 -33 31 -39 51 -14
41 11 -4 30 7 56 34 l40 40 91 0 c85 0 89 -1 75 -17 -68 -78 -66 -202 5 -271
68 -66 1 -62 1134 -62 l1026 0 -19 -23 -19 -22 25 22 c24 21 33 22 325 25 294
3 301 3 338 26 97 61 123 206 51 292 l-26 30 51 0 c38 0 53 5 64 20 12 17 13
249 9 1519 l-5 1500 268 3 267 3 29 33 c22 24 29 42 29 72 0 51 -487 2245
-507 2283 -28 55 -47 57 -458 57 l-375 0 0 153 0 154 74 -5 c43 -2 88 0 109 7
49 17 121 83 147 136 30 63 29 158 -2 222 -24 49 -65 87 -1117 1047 -146 132
-336 306 -424 386 -89 81 -179 155 -205 167 -65 32 -150 31 -217 -1z m844
-1251 l680 -620 0 -607 1 -608 -1415 0 -1415 0 1 608 0 607 706 643 706 642
28 -22 c16 -13 334 -302 708 -643z m-1979 -2255 l0 -300 -85 0 -85 0 0 300 0
300 85 0 85 0 0 -300z m260 0 l0 -300 -70 0 -70 0 0 300 0 300 70 0 70 0 0
-300z m270 0 l0 -300 -75 0 -75 0 0 300 0 300 75 0 75 0 0 -300z m260 0 l0
-300 -75 0 -75 0 0 300 0 300 75 0 75 0 0 -300z m270 0 l0 -300 -75 0 -75 0 0
300 0 300 75 0 75 0 0 -300z m260 0 l0 -300 -75 0 -75 0 0 300 0 300 75 0 75
0 0 -300z m260 0 l0 -300 -75 0 -74 0 -1 300 0 300 75 0 75 0 0 -300z m270 0
l0 -300 -75 0 -75 0 0 300 0 300 75 0 75 0 0 -300z m260 0 l0 -300 -75 0 -75
0 0 300 0 300 75 0 75 0 0 -300z m270 0 l0 -300 -75 0 -75 0 0 300 0 300 74 0
75 0 1 -300z m280 0 l0 -300 -85 0 -85 0 0 300 0 300 85 0 85 0 0 -300z m750
-2669 l0 -1459 -97 -4 c-125 -6 -138 -1 -147 53 -10 62 -73 123 -144 138 -29
6 -73 11 -97 11 l-45 0 0 968 0 967 -23 40 c-13 22 -40 49 -62 62 l-40 23
-768 0 c-642 0 -772 -2 -795 -14 -36 -19 -78 -65 -91 -99 -8 -19 -11 -334 -11
-986 l0 -958 -76 -7 c-123 -10 -196 -65 -210 -158 l-7 -38 -1321 0 c-726 1
-1492 0 -1701 -1 -209 -1 -446 -1 -527 -1 l-148 2 0 1460 0 1460 3155 0 3155
0 0 -1459z m-659 660 c18 -22 19 -53 19 -972 l0 -949 -780 0 -780 0 2 962 3
962 25 13 c20 10 180 12 758 10 l734 -2 19 -24z m-2401 -2250 c0 -15 -30 -41
-48 -42 -34 -2 -57 3 -74 18 -30 27 -21 33 52 33 39 0 70 -4 70 -9z"/>
<path d="M5915 8220 c-11 -4 -33 -22 -50 -40 l-30 -31 -3 -397 c-2 -370 -1
-399 16 -431 38 -70 42 -71 465 -71 421 0 427 1 467 65 20 32 21 45 18 433
l-3 400 -25 27 c-52 55 -49 55 -457 54 -208 0 -387 -4 -398 -9z m345 -265 l0
-155 -160 0 -160 0 0 148 c0 82 3 152 7 155 3 4 75 7 160 7 l153 0 0 -155z
m428 -2 l3 -153 -161 0 -160 0 0 155 0 156 158 -3 157 -3 3 -152z m-428 -433
l0 -160 -148 0 c-102 0 -152 4 -160 12 -8 8 -12 58 -12 160 l0 148 160 0 160
0 0 -160z m430 12 c0 -102 -4 -152 -12 -160 -8 -8 -58 -12 -160 -12 l-148 0 0
160 0 160 160 0 160 0 0 -148z"/>
<path d="M7162 8210 c-18 -11 -41 -34 -52 -52 -19 -31 -20 -51 -20 -418 0
-354 1 -388 18 -419 38 -70 42 -71 465 -71 419 0 428 1 466 63 21 35 22 39 19
435 l-3 400 -25 27 c-52 55 -49 55 -457 55 -360 0 -380 -1 -411 -20z m358
-255 l0 -155 -160 0 -160 0 0 148 c0 82 3 152 7 155 3 4 75 7 160 7 l153 0 0
-155z m428 -2 l3 -153 -161 0 -160 0 0 155 0 156 158 -3 157 -3 3 -152z m-430
-430 l-3 -158 -144 -3 c-97 -2 -148 1 -157 9 -11 9 -14 46 -14 160 l0 149 160
0 161 0 -3 -157z m432 7 c0 -134 -2 -151 -17 -158 -10 -4 -81 -7 -158 -7
l-140 0 -3 158 -3 157 161 0 160 0 0 -150z"/>
<path d="M3493 4815 c-27 -16 -49 -40 -62 -68 -20 -42 -21 -56 -21 -581 0
-519 1 -538 20 -576 11 -22 39 -52 62 -67 l42 -28 540 0 541 0 40 23 c22 13
52 39 65 59 l25 37 3 530 c2 361 0 543 -8 568 -6 20 -22 51 -36 68 -53 62 -31
60 -626 60 l-543 0 -42 -25z m527 -335 l0 -250 -250 0 -250 0 0 225 0 226 25
24 24 25 226 0 225 0 0 -250z m588 234 c22 -15 22 -19 22 -250 l0 -234 -245 0
-245 0 0 250 0 250 223 0 c185 0 226 -3 245 -16z m-588 -854 l0 -250 -227 0
c-126 0 -233 4 -239 8 -29 19 -34 55 -34 271 l0 221 250 0 250 0 0 -250z m610
18 c0 -201 -2 -234 -17 -250 -15 -16 -36 -18 -245 -18 l-228 0 0 250 0 250
245 0 245 0 0 -232z"/>
<path d="M5205 4826 c-40 -17 -82 -67 -95 -114 -14 -52 -14 -1034 1 -1087 15
-52 74 -110 127 -124 30 -8 196 -11 560 -9 577 3 552 0 609 75 l28 36 0 566 0
566 -23 33 c-13 18 -41 41 -62 52 -38 19 -61 20 -577 20 -425 -1 -544 -4 -568
-14z m513 -348 l2 -248 -250 0 -250 0 0 228 c0 233 3 252 40 265 8 3 114 5
235 4 l220 -2 3 -247z m586 231 l26 -20 0 -230 0 -229 -250 0 -250 0 0 250 0
250 224 0 c211 0 225 -1 250 -21z m-584 -849 l0 -250 -228 0 c-190 0 -231 3
-250 16 -22 15 -22 19 -22 250 l0 234 250 0 250 0 0 -250z m610 20 c0 -217 -1
-231 -20 -250 -19 -19 -33 -20 -250 -20 l-230 0 0 250 0 250 250 0 250 0 0
-230z"/>
<path d="M8187 4032 c-15 -16 -17 -48 -17 -234 0 -195 2 -216 18 -231 26 -24
68 -21 86 5 13 19 16 58 16 230 0 195 -1 209 -20 228 -25 25 -62 26 -83 2z"/>
<path d="M7132 3636 c-23 -23 -42 -46 -42 -50 0 -5 21 12 47 37 26 26 45 48
42 51 -2 2 -23 -14 -47 -38z"/>
<path d="M7030 3535 c-24 -25 -42 -47 -39 -50 3 -2 25 15 49 40 24 25 42 47
39 50 -3 2 -25 -15 -49 -40z"/>
<path d="M5665 2170 c-54 -55 -97 -102 -94 -104 3 -3 50 39 104 94 54 55 97
102 94 104 -3 3 -50 -39 -104 -94z"/>
<path d="M2835 2158 l-100 -103 103 100 c95 93 107 105 99 105 -1 0 -47 -46
-102 -102z"/>
<path d="M7160 2096 c0 -11 30 -39 36 -34 2 3 -5 13 -16 23 -11 10 -20 15 -20
11z"/>
<path d="M7220 2030 c11 -11 23 -20 27 -20 3 0 -2 9 -12 20 -10 11 -22 20 -27
20 -4 0 1 -9 12 -20z"/>
<path d="M7270 1980 c11 -11 23 -20 27 -20 3 0 -2 9 -12 20 -10 11 -22 20 -27
20 -4 0 1 -9 12 -20z"/>
<path d="M8125 1961 c-32 -13 -55 -46 -62 -85 -4 -28 -2 -36 10 -36 11 0 15 9
15 32 -1 44 43 82 85 74 17 -3 33 -9 36 -11 2 -3 -15 -26 -39 -50 -27 -27 -38
-45 -29 -45 8 0 35 21 59 46 l45 45 -24 20 c-24 20 -62 24 -96 10z"/>
<path d="M2440 1923 c-40 -45 -25 -56 18 -13 31 30 64 38 92 20 12 -8 10 -14
-14 -39 -16 -17 -27 -33 -24 -37 7 -6 77 66 78 79 0 12 -47 27 -85 27 -26 0
-40 -8 -65 -37z"/>
<path d="M7338 1910 c12 -11 24 -20 28 -20 4 0 -1 9 -11 20 -10 11 -23 20 -28
20 -6 0 -1 -9 11 -20z"/>
<path d="M8250 1870 c0 -16 5 -30 10 -30 6 0 10 14 10 30 0 17 -4 30 -10 30
-5 0 -10 -13 -10 -30z"/>
<path d="M2600 1865 c0 -14 6 -25 14 -25 9 0 12 8 8 25 -2 14 -8 25 -13 25 -5
0 -9 -11 -9 -25z"/>
<path d="M7388 1860 c12 -11 24 -20 28 -20 4 0 -1 9 -11 20 -10 11 -23 20 -28
20 -6 0 -1 -9 11 -20z"/>
</g>
</svg>
